<?xml version="1.0" encoding="utf-8"?>
<!-- Generator: Adobe Illustrator 22.0.0, SVG Export Plug-In . SVG Version: 6.00 Build 0)  -->
<svg version="1.1" id="Layer_1" xmlns="http://www.w3.org/2000/svg" xmlns:xlink="http://www.w3.org/1999/xlink" x="0px" y="0px"
	 viewBox="0 0 84.9 112.5" style="enable-background:new 0 0 84.9 112.5;" xml:space="preserve">
<style type="text/css">
	.st0{fill:#FFFFFF;}
</style>
<g id="XMLID_1_">
	<g>
		<path class="st0" d="M69.3,61.5v12.4c0,7.3-5.9,13.1-13.2,13.2c0,0-25,0-25.1,0c-3.8,0-6.8-1.9-9.4-5c-3.8-4.7-6.3-12.1-7.7-18.2
			c-0.7-3.1-1.2-5.9-1.4-7.9c-0.2-1.2-0.3-2.1-0.3-2.7c5.3-6.9,6.8-12.7,7.1-14.8c0.8-0.3,1.5-0.4,2-0.4c1.1,0,1.6,0.4,2.1,1.1
			c1,1.4,1.3,4.2,1.2,5.4c0,0.1,0,0.3,0,0.4c-2.6,5.5-3.5,9-3.5,11.4c-0.1,3.2,1.8,4.5,2.2,4.6l3.4,1c0.2,0.1,1.2,0.1,1.2,0.1
			s0.5,0,1.4,0.1c2.8,0.4,8.3,1.8,10.3,6.3c0.2,0.5,0.8,0.8,1.3,0.8c0.2,0,0.4,0,0.6-0.1c0.7-0.3,1-1.2,0.7-1.9c-1.9-4-5.5-6-8.6-7
			c-2.2-0.7-4.2-1-5.1-1V15.4c0-2.3,1.8-4.1,4.1-4.1c1.8,0,3.2,1.1,3.8,2.6c0,0,0,31.9,0,31.9c0,0.8,0.6,1.5,1.4,1.5
			c0.8,0,1.4-0.6,1.5-1.4V8.4c0-2.3,1.8-4.1,4.1-4.1c2.3,0,4.1,1.8,4.1,4.1V48c0,0.8,0.7,1.4,1.5,1.4s1.5-0.6,1.5-1.4V10.7
			C51.1,9.1,52.6,8,54.3,8c2.3,0,4.1,1.8,4.1,4.1v37.4c0,0.8,0.7,1.4,1.5,1.4s1.5-0.7,1.5-1.4V21c0.6-1.5,2.1-2.6,3.8-2.6
			c2.3,0,4.1,1.8,4.1,4.1V61.5z"/>
		<path d="M25.7,58.6v-9c-1.3,3.2-1.6,5.4-1.6,6.7c0,1.4,0.4,1.8,0.5,1.9L25.7,58.6z M54.3,8c-1.8,0-3.2,1.1-3.8,2.6V48
			c0,0.8-0.7,1.4-1.5,1.4s-1.5-0.6-1.5-1.4V8.4c0-2.3-1.8-4.1-4.1-4.1c-2.3,0-4.1,1.8-4.1,4.1v37.5c0,0.8-0.7,1.4-1.5,1.4
			c-0.8,0-1.4-0.7-1.4-1.5c0,0,0-31.9,0-31.9c-0.6-1.5-2.1-2.6-3.8-2.6c-2.3,0-4.1,1.8-4.1,4.1v43.9c0.9,0.1,2.9,0.3,5.1,1
			c3,1,6.7,3,8.6,7c0.3,0.7,0,1.6-0.7,1.9c-0.2,0.1-0.4,0.1-0.6,0.1c-0.5,0-1.1-0.3-1.3-0.8c-2-4.5-7.5-6-10.3-6.3
			c-0.9-0.1-1.4-0.1-1.4-0.1S27,62,26.8,62l-3.4-1c-0.4-0.1-2.3-1.4-2.2-4.6c0-2.4,0.8-6,3.5-11.4c0-0.1,0-0.2,0-0.4
			c0-1.2-0.2-4-1.2-5.4c-0.5-0.7-1.1-1.1-2.1-1.1c-0.5,0-1.2,0.1-2,0.4c-0.4,2.1-1.8,7.9-7.1,14.8c0.1,0.5,0.2,1.5,0.3,2.7
			c0.3,2,0.7,4.8,1.4,7.9c1.4,6.2,3.9,13.6,7.7,18.2c2.6,3.1,5.6,5,9.4,5c0,0,25.1,0,25.1,0c7.3,0,13.2-5.9,13.2-13.2V61.5V22.4
			c0-2.3-1.8-4.1-4.1-4.1c-1.8,0-3.2,1.1-3.8,2.6v28.5c0,0.8-0.7,1.4-1.5,1.4s-1.5-0.7-1.5-1.4V12.1C58.4,9.9,56.6,8,54.3,8z
			 M54.3,5.1c3.9,0,7,3.1,7,7v4.4c1.1-0.7,2.4-1.2,3.8-1.2c3.9,0,7,3.1,7,7v39.1c0,0,0,0,0,0v12.4C72.2,82.8,65,90,56.1,90H31.2
			c0,0-0.1,0-0.2,0h0c-4.9,0-8.8-2.6-11.6-6.1c-2.9-3.6-4.9-8.2-6.4-12.7C10,62,9.2,53,9.2,53c0-0.4,0.1-0.7,0.3-1
			c5.7-7.3,6.8-13.2,7-14.4c0-0.2,0-0.2,0-0.2c0-0.5,0.4-1,0.8-1.2c1.4-0.7,2.7-1,3.9-1c2,0,3.5,1,4.4,2.3v-22c0-3.9,3.1-7,7-7
			c1.4,0,2.7,0.4,3.8,1.2V8.4c0-3.9,3.1-7,7-7c3.2,0,5.9,2.2,6.7,5.1C51.4,5.6,52.8,5.1,54.3,5.1z"/>
	</g>
	<g>
	</g>
</g>
</svg>
