<?xml version="1.0" encoding="utf-8"?>
<!-- Generator: Adobe Illustrator 22.0.0, SVG Export Plug-In . SVG Version: 6.00 Build 0)  -->
<svg version="1.1" id="Layer_1" xmlns="http://www.w3.org/2000/svg" xmlns:xlink="http://www.w3.org/1999/xlink" x="0px" y="0px"
	 viewBox="0 0 84.9 112.5" style="enable-background:new 0 0 84.9 112.5;" xml:space="preserve">
<style type="text/css">
	.st0{fill:#FFFFFF;}
</style>
<g id="XMLID_1_">
	<g>
		<path class="st0" d="M69.3,51v23c0,7.3-5.9,13.1-13.2,13.2H34.5c-0.8,0-1.7-0.1-2.5-0.2l-0.3,0l-0.5,0c0,0-0.1,0-0.1,0
			c-0.1,0-0.1,0-0.1,0c-3.8,0-6.8-1.9-9.4-5c-3.8-4.7-6.3-12-7.7-18.1c-0.7-3.1-1.2-5.8-1.5-7.8c-0.2-1.2-0.3-2.1-0.3-2.6
			c5.3-6.9,6.7-12.7,7.1-14.8c0.8-0.3,1.5-0.4,2-0.4c1.1,0,1.6,0.4,2.1,1.1c1,1.4,1.3,4.2,1.3,5.4c0,0.1,0,0.3,0,0.4
			c-2.6,5.5-3.5,9-3.5,11.4c-0.1,3.2,1.8,4.5,2.2,4.6l3.4,1c0.2,0.1,3.2,0.1,5.5,0.9c2.6,0.8,5.4,2.4,6.8,5.3
			c0.2,0.5,0.8,0.8,1.3,0.8c0.2,0,0.4,0,0.6-0.1c0.7-0.3,1-1.2,0.7-1.9c-1.9-4-5.5-6-8.5-6.9c-1.8-0.5-3.4-0.8-4.5-0.9v-6.4
			c0.1,0.1,0.2,0.1,0.3,0.2c0.1,0.1,0.3,0.1,0.4,0.2c0.2,0.1,0.4,0.2,0.6,0.3c0.1,0,0.3,0.1,0.4,0.2c0.3,0.1,0.5,0.1,0.8,0.2
			c0.1,0,0.2,0.1,0.3,0.1c0.4,0.1,0.8,0.1,1.2,0.1c0,0,0,0,0.1,0c0.3,0,0.7,0,1-0.1c0.1,0,0.2,0,0.3-0.1c0.3,0,0.5-0.1,0.7-0.2
			c0.1,0,0.2-0.1,0.4-0.1c0.2-0.1,0.4-0.2,0.6-0.3c0.1-0.1,0.3-0.1,0.4-0.2c0.1-0.1,0.3-0.2,0.4-0.3c0.6,2.7,2.7,4.8,5.4,5.4
			c0,0,0,0,0,0c0.2,0,0.4,0.1,0.6,0.1c0,0,0.1,0,0.1,0c0.2,0,0.5,0,0.7,0c0,0,0,0,0.1,0c0.3,0,0.5,0,0.8-0.1c0.1,0,0.2,0,0.3,0
			c0.2,0,0.4-0.1,0.6-0.1c0.1,0,0.2,0,0.3-0.1c0.3-0.1,0.5-0.2,0.8-0.3c0,0,0.1,0,0.1,0c0.2-0.1,0.4-0.2,0.6-0.3
			c0.1,0,0.1-0.1,0.2-0.1c0.2-0.1,0.4-0.2,0.5-0.4c0,0,0.1-0.1,0.1-0.1c0.2-0.2,0.4-0.3,0.6-0.5c0,0,0,0,0.1-0.1
			c0.2-0.2,0.3-0.4,0.5-0.6c0,0,0.1-0.1,0.1-0.2c0.2-0.2,0.3-0.4,0.4-0.6c0,0,0,0,0-0.1c0.2,0.2,0.4,0.3,0.6,0.5
			c0,0,0.1,0.1,0.1,0.1c0.3,0.2,0.5,0.3,0.8,0.5c0,0,0,0,0.1,0c0.3,0.2,0.6,0.3,0.9,0.4c0.1,0,0.1,0,0.2,0.1
			c0.3,0.1,0.6,0.2,0.9,0.2c0.1,0,0.1,0,0.2,0c0.3,0,0.7,0.1,1,0.1c0,0,0,0,0,0c0,0,0.1,0,0.2,0c0.2,0,0.3,0,0.5,0
			c0.1,0,0.2,0,0.3,0c0.1,0,0.3,0,0.4-0.1c0.1,0,0.2,0,0.3-0.1c0.1,0,0.2-0.1,0.3-0.1c0.1,0,0.2-0.1,0.3-0.1c0.1,0,0.2-0.1,0.3-0.1
			c0.1,0,0.2-0.1,0.3-0.1c0.1,0,0.2-0.1,0.3-0.1c0.1,0,0.2-0.1,0.3-0.1c0.1-0.1,0.2-0.1,0.3-0.2c0.1,0,0.1-0.1,0.2-0.1
			c0.2-0.1,0.3-0.2,0.5-0.3c0,0,0.1-0.1,0.1-0.1c0.1-0.1,0.2-0.2,0.4-0.3c0.1,0,0.1-0.1,0.2-0.2c0.1-0.1,0.2-0.2,0.3-0.3
			c0.1-0.1,0.1-0.1,0.2-0.2c0.1-0.1,0.1-0.2,0.2-0.3c0.1-0.1,0.1-0.2,0.2-0.2c0.1-0.1,0.1-0.2,0.2-0.3c0.1-0.1,0.1-0.2,0.1-0.3
			c0.1-0.1,0.1-0.2,0.2-0.3c0-0.1,0.1-0.2,0.1-0.3c0.1-0.1,0.1-0.3,0.1-0.4c0-0.1,0.1-0.1,0.1-0.2c0.1-0.2,0.1-0.4,0.2-0.6
			c0.1,0.1,0.3,0.2,0.4,0.3c0.1,0.1,0.2,0.2,0.4,0.2c0.2,0.1,0.4,0.2,0.6,0.3c0.1,0,0.3,0.1,0.4,0.1c0.2,0.1,0.5,0.1,0.7,0.2
			c0.1,0,0.2,0.1,0.3,0.1c0.4,0.1,0.7,0.1,1.1,0.1c0.4,0,0.8,0,1.1-0.1c0,0,0.1,0,0.1,0c0.3-0.1,0.7-0.1,1-0.3c0,0,0.1,0,0.1,0
			c0.3-0.1,0.6-0.2,0.9-0.4c0,0,0.1,0,0.1-0.1C68.7,51.4,68.9,51.2,69.3,51C69.2,51,69.3,51,69.3,51z"/>
		<path d="M72,35.9l0.1,38C72.2,82.8,65,90,56.1,90H34.5c-1,0-2-0.1-2.9-0.3h-0.4c0,0-0.1,0-0.2,0c-4.9,0-8.8-2.5-11.6-6.1
			c-2.9-3.5-4.9-8.1-6.4-12.7C10,62,9.2,53,9.2,53c0-0.4,0.1-0.7,0.3-1c5.7-7.3,6.8-13.2,7-14.4c0-0.2,0-0.2,0-0.2
			c0-0.5,0.4-1,0.8-1.2c1.4-0.6,2.7-1,3.9-1c2,0,3.5,1,4.4,2.3v-4.3l0-0.3c0.7-3.1,3.5-5.5,6.8-5.5c1.5,0,2.8,0.5,3.9,1.2
			c0-1.1,0-2,0-2.3c0-0.2,0-0.1,0-0.4c0.7-3.1,3.5-5.5,6.8-5.5c3.2,0,5.9,2.2,6.7,5.1c1.2-0.8,2.6-1.3,4.1-1.3
			c3.5,0,6.5,2.6,6.9,6.1c1.1-0.8,2.4-1.2,3.9-1.2C68.9,28.9,72,32.1,72,35.9z M69.3,73.9V51c0,0,0,0-0.1,0
			c-0.3,0.2-0.5,0.4-0.8,0.5c0,0-0.1,0-0.1,0.1c-0.3,0.1-0.6,0.3-0.9,0.4c0,0-0.1,0-0.1,0c-0.3,0.1-0.7,0.2-1,0.3c0,0-0.1,0-0.1,0
			c-0.4,0.1-0.7,0.1-1.1,0.1c-0.4,0-0.8,0-1.1-0.1c-0.1,0-0.2-0.1-0.3-0.1c-0.2,0-0.5-0.1-0.7-0.2c-0.1,0-0.3-0.1-0.4-0.1
			c-0.2-0.1-0.4-0.2-0.6-0.3c-0.1-0.1-0.3-0.1-0.4-0.2c-0.1-0.1-0.3-0.2-0.4-0.3c0,0.2-0.1,0.4-0.2,0.6c0,0.1-0.1,0.2-0.1,0.2
			c0,0.1-0.1,0.3-0.1,0.4c0,0.1-0.1,0.2-0.1,0.3c0,0.1-0.1,0.2-0.2,0.3c0,0.1-0.1,0.2-0.1,0.3c-0.1,0.1-0.1,0.2-0.2,0.3
			c0,0.1-0.1,0.2-0.2,0.2c-0.1,0.1-0.1,0.2-0.2,0.3c-0.1,0.1-0.1,0.1-0.2,0.2c-0.1,0.1-0.2,0.2-0.3,0.3c-0.1,0.1-0.1,0.1-0.2,0.2
			c-0.1,0.1-0.2,0.2-0.4,0.3c0,0-0.1,0.1-0.1,0.1c-0.1,0.1-0.3,0.2-0.5,0.3c-0.1,0-0.1,0.1-0.2,0.1c-0.1,0.1-0.2,0.1-0.3,0.2
			c-0.1,0-0.2,0.1-0.3,0.1c-0.1,0-0.2,0.1-0.3,0.1c-0.1,0-0.2,0.1-0.3,0.1c-0.1,0-0.2,0.1-0.3,0.1c-0.1,0-0.2,0.1-0.3,0.1
			c-0.1,0-0.2,0.1-0.3,0.1c-0.1,0-0.2,0-0.3,0.1c-0.1,0-0.3,0-0.4,0.1c-0.1,0-0.2,0-0.3,0c-0.2,0-0.4,0-0.5,0c0,0-0.1,0-0.2,0
			c0,0,0,0,0,0c-0.3,0-0.7,0-1-0.1c-0.1,0-0.1,0-0.2,0c-0.3-0.1-0.6-0.1-0.9-0.2c-0.1,0-0.1,0-0.2-0.1c-0.3-0.1-0.6-0.2-0.9-0.4
			c0,0,0,0-0.1,0c-0.3-0.2-0.5-0.3-0.8-0.5c0,0-0.1-0.1-0.1-0.1c-0.2-0.2-0.4-0.3-0.6-0.5c0,0,0,0.1,0,0.1c-0.1,0.2-0.3,0.4-0.4,0.6
			c0,0.1-0.1,0.1-0.1,0.2c-0.2,0.2-0.3,0.4-0.5,0.6c0,0,0,0-0.1,0.1c-0.2,0.2-0.4,0.4-0.6,0.5c0,0-0.1,0.1-0.1,0.1
			c-0.2,0.1-0.3,0.3-0.5,0.4c-0.1,0-0.1,0.1-0.2,0.1c-0.2,0.1-0.4,0.2-0.6,0.3c0,0-0.1,0-0.1,0c-0.3,0.1-0.5,0.2-0.8,0.3
			c-0.1,0-0.2,0-0.3,0.1c-0.2,0-0.4,0.1-0.6,0.1c-0.1,0-0.2,0-0.3,0c-0.3,0-0.5,0-0.8,0.1c0,0,0,0-0.1,0c-0.2,0-0.5,0-0.7,0
			c0,0,0,0-0.1,0c-0.2,0-0.4,0-0.6-0.1c0,0,0,0,0,0c-2.7-0.6-4.8-2.7-5.4-5.4c-0.1,0.1-0.3,0.2-0.4,0.3c-0.1,0.1-0.3,0.1-0.4,0.2
			c-0.2,0.1-0.4,0.2-0.6,0.3c-0.1,0-0.3,0.1-0.4,0.1c-0.2,0.1-0.5,0.1-0.7,0.2c-0.1,0-0.2,0.1-0.3,0.1C33.3,54,33,54,32.7,54
			c0,0-0.1,0-0.1,0c-0.4,0-0.8,0-1.2-0.1c-0.1,0-0.2-0.1-0.3-0.1c-0.3-0.1-0.5-0.1-0.8-0.2c-0.1,0-0.3-0.1-0.4-0.2
			c-0.2-0.1-0.4-0.2-0.6-0.3C29.2,53.1,29,53,28.9,53c-0.1-0.1-0.2-0.1-0.3-0.2v6.4c1.1,0.1,2.7,0.3,4.5,0.9c3,0.9,6.7,2.9,8.5,6.9
			c0.3,0.7,0,1.6-0.7,1.9c-0.2,0.1-0.4,0.1-0.6,0.1c-0.5,0-1.1-0.3-1.3-0.8c-1.4-3-4.1-4.5-6.8-5.3C29.9,62.1,27,62,26.8,62l-3.4-1
			c-0.4-0.1-2.3-1.4-2.2-4.6c0-2.4,0.8-5.9,3.5-11.4c0-0.1,0-0.2,0-0.4c0-1.2-0.2-4-1.3-5.4c-0.5-0.7-1-1.1-2.1-1.1
			c-0.5,0-1.2,0.1-2,0.4c-0.4,2.2-1.8,7.9-7.1,14.8c0.1,0.5,0.2,1.4,0.3,2.6c0.3,2,0.7,4.8,1.5,7.8c1.4,6.1,3.9,13.4,7.7,18.1
			c2.6,3.1,5.6,5,9.4,5c0,0,0.1,0,0.1,0c0,0,0.1,0,0.1,0l0.5,0l0.3,0c0.8,0.2,1.6,0.2,2.5,0.2h21.6C63.4,87.1,69.3,81.2,69.3,73.9z
			 M69.1,45.4v-9.5c0-1.1-0.5-2.2-1.2-2.9c-0.7-0.7-1.8-1.2-2.9-1.2c-1.8,0-3.2,1.1-3.8,2.7c0,0.1-0.1,0.1-0.1,0.2
			C61.1,34.8,61,35,61,35.1c0,0.3-0.1,0.5-0.1,0.8l0,9.5c0,0.4,0.1,0.9,0.2,1.3c0,0.1,0,0.1,0.1,0.2c0,0.1,0.1,0.2,0.1,0.2
			c0.2,0.4,0.4,0.8,0.8,1.2c0.7,0.8,1.8,1.3,2.9,1.3c1,0,1.9-0.4,2.6-1c0.7-0.6,1.2-1.4,1.4-2.4C69.1,45.9,69.1,45.7,69.1,45.4z
			 M58.3,49.7V31.1c0-2.3-1.8-4.1-4.1-4.1h0c-1.8,0-3.3,1.1-3.8,2.7c0,0,0,0.1-0.1,0.1c-0.1,0.4-0.2,0.8-0.2,1.3v18.7
			c0,0.4,0.1,0.8,0.2,1.3c0,0,0,0.1,0,0.1c0.1,0.4,0.3,0.7,0.5,1c0.8,1,2,1.7,3.3,1.7c0.9,0,1.6-0.3,2.3-0.7
			C57.6,52.4,58.3,51.2,58.3,49.7z M47.5,51.5c0,0,0-0.1,0-0.1c0-0.1,0-0.3,0-0.4c0-0.4,0-23.5,0-23.6c0-2.3-1.8-4.1-4.1-4.1
			c-1.9,0-3.5,1.3-4,3.1v0c0,0.1,0,0.2,0,0.4c0,0.3,0,24.7,0,24.7c0,2.1,1.5,3.8,3.5,4c0.1,0,0.3,0,0.4,0c0,0,0,0,0.1,0
			c0.3,0,0.5,0,0.8-0.1c0.1,0,0.2-0.1,0.3-0.1c0.2,0,0.3-0.1,0.5-0.2c0.1,0,0.2-0.1,0.3-0.1c0.1-0.1,0.3-0.1,0.4-0.2
			c0.1,0,0.1-0.1,0.2-0.2c0.1-0.1,0.3-0.2,0.4-0.3c0.1-0.1,0.1-0.1,0.2-0.2c0.1-0.1,0.2-0.3,0.3-0.4c0-0.1,0.1-0.1,0.1-0.2
			c0.1-0.1,0.2-0.3,0.3-0.5c0-0.1,0-0.1,0.1-0.2c0.1-0.2,0.1-0.4,0.2-0.5c0-0.1,0-0.2,0-0.2C47.4,51.9,47.5,51.7,47.5,51.5
			C47.5,51.5,47.5,51.5,47.5,51.5z M36.4,48.5V32.8c-0.6-1.5-2.1-2.6-3.8-2.6c-1.9,0-3.5,1.3-4,3.1V48c0,0.1,0.1,0.2,0.1,0.3
			c0,0.1,0.1,0.2,0.1,0.3c0,0.1,0.1,0.2,0.1,0.3c0.1,0.1,0.1,0.2,0.2,0.3c0.1,0.1,0.1,0.2,0.2,0.3s0.1,0.2,0.2,0.3
			c0.1,0.1,0.2,0.2,0.3,0.2c0.1,0.1,0.1,0.2,0.2,0.2c0.1,0.1,0.2,0.1,0.3,0.2c0.1,0.1,0.2,0.1,0.3,0.2c0.1,0.1,0.2,0.1,0.4,0.2
			c0.1,0,0.2,0.1,0.3,0.1c0.1,0,0.3,0.1,0.5,0.1c0.1,0,0.1,0,0.2,0.1c0.2,0,0.5,0.1,0.7,0.1c0,0,0,0,0,0c0.2,0,0.4,0,0.6,0
			c0.1,0,0.2,0,0.2,0c0.1,0,0.3-0.1,0.4-0.1c0.1,0,0.2-0.1,0.3-0.1c0.1,0,0.2-0.1,0.3-0.1c0.1,0,0.2-0.1,0.3-0.2
			c0.1-0.1,0.2-0.1,0.3-0.2c0.1,0,0.2-0.1,0.2-0.2c0.1-0.1,0.2-0.1,0.3-0.2c0.1-0.1,0.1-0.1,0.2-0.2c0.1-0.1,0.1-0.2,0.2-0.2
			c0.1-0.1,0.1-0.2,0.2-0.3c0.1-0.1,0.1-0.2,0.2-0.3c0.1-0.1,0.1-0.2,0.1-0.3C36.3,48.6,36.4,48.5,36.4,48.5z M25.7,58.6v-9
			c-1.3,3.2-1.6,5.4-1.6,6.7c0,1.4,0.4,1.8,0.5,1.9L25.7,58.6z"/>
		<path class="st0" d="M69.1,35.9v9.5c0,0.3,0,0.5-0.1,0.8c-0.2,0.9-0.7,1.8-1.4,2.4c-0.7,0.6-1.6,1-2.6,1c-1.2,0-2.2-0.5-2.9-1.3
			c-0.3-0.3-0.6-0.7-0.8-1.2c0-0.1-0.1-0.2-0.1-0.2c0-0.1-0.1-0.1-0.1-0.2c-0.1-0.4-0.2-0.8-0.2-1.3l0-9.5c0-0.3,0-0.5,0.1-0.8
			c0-0.1,0.1-0.3,0.1-0.5c0-0.1,0-0.1,0.1-0.2c0.6-1.5,2.1-2.7,3.8-2.7c1.1,0,2.2,0.5,2.9,1.2C68.7,33.8,69.1,34.8,69.1,35.9z"/>
		<path class="st0" d="M58.3,31.1v18.7c0,1.4-0.7,2.7-1.8,3.4c-0.7,0.4-1.4,0.7-2.3,0.7c-1.4,0-2.6-0.7-3.3-1.7
			c-0.2-0.3-0.4-0.6-0.5-1c0,0,0-0.1,0-0.1c-0.1-0.4-0.2-0.8-0.2-1.3V31.1c0-0.4,0.1-0.9,0.2-1.3c0,0,0-0.1,0.1-0.1
			c0.6-1.6,2.1-2.7,3.8-2.7h0C56.5,27,58.3,28.8,58.3,31.1z"/>
		<path class="st0" d="M47.5,51.3c0,0.1,0,0.1,0,0.1c0,0,0,0,0,0.1c0,0.2,0,0.3-0.1,0.5c0,0.1,0,0.2,0,0.2c0,0.2-0.1,0.4-0.2,0.5
			c0,0.1,0,0.1-0.1,0.2c-0.1,0.2-0.2,0.3-0.3,0.5c0,0.1-0.1,0.2-0.1,0.2c-0.1,0.1-0.2,0.3-0.3,0.4c-0.1,0.1-0.1,0.1-0.2,0.2
			c-0.1,0.1-0.2,0.2-0.4,0.3c-0.1,0.1-0.2,0.1-0.2,0.2c-0.1,0.1-0.3,0.1-0.4,0.2c-0.1,0-0.2,0.1-0.3,0.1c-0.1,0.1-0.3,0.1-0.5,0.2
			c-0.1,0-0.2,0.1-0.3,0.1c-0.2,0-0.5,0.1-0.8,0.1c0,0,0,0-0.1,0c-0.1,0-0.3,0-0.4,0c-2-0.2-3.5-1.9-3.5-4c0,0,0-24.4,0-24.7
			c0-0.2,0-0.3,0-0.4v0c0.4-1.8,2.1-3.1,4-3.1c2.3,0,4.1,1.8,4.1,4.1c0,0.1-0.1,23.2,0,23.6C47.5,51.1,47.5,51.2,47.5,51.3z"/>
		<path class="st0" d="M36.4,32.8v15.6c0,0.1-0.1,0.2-0.1,0.2c0,0.1-0.1,0.2-0.1,0.3c0,0.1-0.1,0.2-0.2,0.3c0,0.1-0.1,0.2-0.2,0.3
			c-0.1,0.1-0.1,0.2-0.2,0.2c-0.1,0.1-0.1,0.2-0.2,0.2c-0.1,0.1-0.2,0.1-0.3,0.2c-0.1,0.1-0.1,0.1-0.2,0.2c-0.1,0.1-0.2,0.1-0.3,0.2
			c-0.1,0.1-0.2,0.1-0.3,0.2c-0.1,0-0.2,0.1-0.3,0.1c-0.1,0-0.2,0.1-0.3,0.1c-0.1,0-0.3,0.1-0.4,0.1c-0.1,0-0.1,0-0.2,0
			c-0.2,0-0.4,0-0.6,0c0,0,0,0,0,0c-0.2,0-0.5,0-0.7-0.1c-0.1,0-0.1,0-0.2-0.1c-0.2,0-0.3-0.1-0.5-0.1c-0.1,0-0.2-0.1-0.3-0.1
			c-0.1-0.1-0.3-0.1-0.4-0.2c-0.1,0-0.2-0.1-0.3-0.2c-0.1-0.1-0.2-0.1-0.3-0.2c-0.1-0.1-0.1-0.1-0.2-0.2c-0.1-0.1-0.2-0.1-0.3-0.2
			c-0.1-0.1-0.1-0.2-0.2-0.3s-0.1-0.2-0.2-0.3C29.1,49.1,29,49,29,48.9c0-0.1-0.1-0.2-0.1-0.3c0-0.1-0.1-0.2-0.1-0.3
			c0-0.1-0.1-0.2-0.1-0.3V33.3c0.5-1.8,2.1-3.1,4-3.1C34.3,30.2,35.8,31.3,36.4,32.8z"/>
	</g>
	<g>
	</g>
</g>
</svg>
