<?xml version="1.0" encoding="utf-8"?>
<!-- Generator: Adobe Illustrator 22.0.0, SVG Export Plug-In . SVG Version: 6.00 Build 0)  -->
<svg version="1.1" id="Layer_1" xmlns="http://www.w3.org/2000/svg" xmlns:xlink="http://www.w3.org/1999/xlink" x="0px" y="0px"
	 viewBox="0 0 84.9 112.5" style="enable-background:new 0 0 84.9 112.5;" xml:space="preserve">
<style type="text/css">
	.st0{fill:#FFFFFF;}
</style>
<g id="XMLID_1_">
	<g>
		<path class="st0" d="M69.3,43.4c0,0.2,0,0.4,0,0.6L69,45.7l-0.1,1l-0.7,4.8l-0.3,1.8c0,0.3-0.1,0.5-0.2,0.8
			c-0.6,1.6-2.1,2.8-3.9,2.8c-0.2,0-0.4,0-0.6,0c-1.7-0.3-3.1-1.6-3.4-3.2c0,0,0-0.1,0-0.1c0,0,0,0,0,0c0-0.2-0.1-0.5-0.1-0.7
			c0-0.2,0-0.4,0-0.6l0.8-6l0.5-3.4c0-0.3,0.1-0.5,0.2-0.8c0-0.2,0.1-0.3,0.2-0.5c0-0.1,0.1-0.1,0.1-0.2c0.7-1.3,2.1-2.2,3.6-2.2h0
			c0.2,0,0.4,0,0.6,0c1,0.1,1.9,0.7,2.5,1.4C68.9,41.5,69.3,42.4,69.3,43.4z"/>
		<path class="st0" d="M59.2,37.1c0,0.2,0,0.4,0,0.6l-0.4,3l-1.7,11.7l-0.2,1.4l-0.3,2.4c0,0,0,0.1,0,0.1c-0.3,2-2.1,3.4-4,3.4
			c-0.2,0-0.4,0-0.6,0c-1.8-0.3-3.1-1.6-3.5-3.3c0,0,0,0,0,0c0-0.2-0.1-0.5-0.1-0.7c0-0.2,0-0.4,0-0.6l0.9-6.4l1.1-8l0.6-4.1
			c0.1-0.4,0.2-0.8,0.3-1.1c0,0,0-0.1,0-0.1c0.7-1.4,2.1-2.3,3.7-2.3c0.2,0,0.4,0,0.6,0C57.7,33.3,59.2,35.1,59.2,37.1z"/>
		<path class="st0" d="M35,45.8c0.3,0.5,0.9,0.7,1.5,0.6c0,0,0,0,0.1,0c0.8,0.1,1.5-0.4,1.7-1.2l0.1-0.9l0.5-3.4L44,6.4
			c0.3-2.1,2-3.5,4-3.5c0.2,0,0.4,0,0.6,0c2,0.3,3.5,2,3.5,4c0,0.2,0,0.4,0,0.6l-6.5,47c0,0.3-0.1,0.6-0.1,1c0,0.4,0,0.8,0.1,1.2
			c0.5,2.9,2.8,5.3,5.9,5.7c0.3,0,0.7,0.1,1,0.1c3,0,5.6-1.9,6.6-4.6c1,0.9,2.3,1.6,3.8,1.8c0.3,0,0.6,0.1,0.9,0.1h0
			c2,0,3.9-0.9,5.2-2.3v16.5c0,7.3-5.9,13.1-13.2,13.2H31c-0.1,0-0.1,0-0.2,0c-3.8,0-6.8-1.9-9.4-5c-3.8-4.7-6.3-12.1-7.7-18.2
			c-0.7-3.1-1.2-5.9-1.4-7.9c-0.2-1.2-0.3-2.1-0.3-2.7c0.1-0.1,0.2-0.2,0.3-0.4c0.2-0.3,0.4-0.5,0.6-0.8c0.1-0.2,0.3-0.4,0.4-0.5
			c0.2-0.3,0.3-0.5,0.5-0.8c0.1-0.2,0.2-0.3,0.3-0.5c0.2-0.3,0.3-0.5,0.5-0.7c0.1-0.1,0.2-0.3,0.3-0.5c0.2-0.2,0.3-0.5,0.4-0.7
			c0.1-0.1,0.2-0.3,0.2-0.4c0.1-0.3,0.3-0.5,0.4-0.7c0.1-0.1,0.1-0.3,0.2-0.4c0.1-0.2,0.3-0.5,0.4-0.7c0.1-0.1,0.1-0.3,0.2-0.4
			c0.1-0.2,0.2-0.5,0.3-0.7c0-0.1,0.1-0.2,0.1-0.3c0.1-0.2,0.2-0.5,0.3-0.7c0-0.1,0.1-0.2,0.1-0.3c0.1-0.2,0.2-0.5,0.3-0.7
			c0-0.1,0.1-0.2,0.1-0.3c0.1-0.2,0.2-0.4,0.2-0.6c0-0.1,0.1-0.1,0.1-0.2c0.1-0.2,0.1-0.4,0.2-0.6c0-0.1,0-0.1,0-0.2
			c0.1-0.2,0.1-0.4,0.2-0.6c0,0,0-0.1,0-0.1c0.1-0.2,0.1-0.4,0.1-0.6c0,0,0-0.1,0-0.1c0-0.2,0.1-0.3,0.1-0.5c0-0.1,0-0.1,0-0.2
			c0-0.1,0-0.2,0.1-0.3c0-0.2,0.1-0.3,0.1-0.5c0.5-0.2,1-0.3,1.4-0.4c0,0,0,0,0,0c0.2,0,0.4-0.1,0.6-0.1c0.3,0,0.6,0.1,0.9,0.1
			c0.4,0.1,0.7,0.3,0.9,0.6c0.1,0.1,0.2,0.2,0.3,0.4c0.3,0.4,0.5,0.9,0.7,1.5c0.4,1.4,0.6,3.1,0.5,3.9c0,0.1,0,0.3,0,0.4
			c-0.1,0.2-0.1,0.3-0.2,0.5c-0.2,0.3-0.3,0.7-0.5,1c-0.3,0.7-0.6,1.3-0.8,1.9c-1.5,3.6-2,6.2-2,8.1c0,0.3,0,0.6,0,0.9
			c0.2,2.2,1.4,3.3,1.9,3.6c0.1,0,0.2,0.1,0.2,0.1l0,0l0.1,0l2.8,0.8l0.5,0.1c0.1,0,0.3,0.1,0.4,0.1c0,0,0,0,0,0c0,0,0,0,0.1,0
			c0.1,0,0.1,0,0.1,0c0.4,0,2.5,0.1,4.8,0.8c2.6,0.8,5.4,2.4,6.7,5.3C39,68.7,39.5,69,40,69c0.2,0,0.4,0,0.6-0.1
			c0.7-0.3,1-1.2,0.7-1.9c-1.8-4-5.5-6-8.5-6.9c-1.9-0.6-3.7-0.8-4.7-0.9l-0.9-4.9l-0.4-2.2L26,48.5c0.1-0.3,0.3-0.6,0.4-0.9
			c0.2-0.5,0.5-1,0.7-1.6l0,0c0,0,0,0,0-0.1c0.1-0.2,0.1-0.3,0.1-0.5c0,0,0-0.2,0-0.5c0-0.1,0-0.2,0-0.3c0-0.3,0-0.6,0-1
			c0-0.2,0-0.3,0-0.5c0-0.2,0-0.4-0.1-0.6c-0.2-1.5-0.6-3.3-1.6-4.9c-0.2-0.3-0.4-0.5-0.7-0.8c-0.6-0.6-1.2-1-2.1-1.3l-6.1-25.1
			c-0.1-0.4-0.1-0.8-0.1-1.1c0-1.8,1.2-3.5,3-4c0.3-0.1,0.7-0.1,1.1-0.1c1.8,0,3.5,1.2,4,3L34.1,43l0.7,2.4
			C34.8,45.5,34.9,45.7,35,45.8z"/>
		<path d="M59.2,37.7c0-0.2,0-0.4,0-0.6c0-2-1.5-3.8-3.5-4c-0.2,0-0.4,0-0.6,0c-1.6,0-3,0.9-3.7,2.3c0,0,0,0.1,0,0.1
			c-0.2,0.3-0.3,0.7-0.3,1.1l-0.6,4.1l-1.1,8L48.5,55c0,0.2,0,0.4,0,0.6c0,0.2,0,0.5,0.1,0.7c0,0,0,0,0,0c0.3,1.7,1.7,3.1,3.5,3.3
			c0.2,0,0.4,0,0.6,0c2,0,3.7-1.4,4-3.4c0,0,0,0,0-0.1l0.3-2.4l0.2-1.4l1.7-11.7L59.2,37.7z M25.1,58.5l-0.9-4.9
			c0,0.1,0,0.2-0.1,0.2c0,0.1-0.1,0.3-0.1,0.4c0,0.2-0.1,0.3-0.1,0.5c0,0.1,0,0.2,0,0.3c0,0.1,0,0.3,0,0.4c0,0.1,0,0.2,0,0.3
			c0,0.1,0,0.2,0,0.3c0,0.1,0,0.2,0,0.3c0,0.7,0.1,1.2,0.2,1.5v0c0,0,0,0.1,0,0.1c0.1,0.2,0.1,0.3,0.2,0.4c0,0,0,0,0.1,0.1
			L25.1,58.5z M69.2,44c0-0.2,0-0.4,0-0.6c0-1-0.4-1.9-1-2.7c-0.6-0.7-1.5-1.2-2.5-1.4c-0.2,0-0.4,0-0.6,0h0c-1.5,0-2.9,0.9-3.6,2.2
			c0,0-0.1,0.1-0.1,0.2c-0.1,0.1-0.1,0.3-0.2,0.5c-0.1,0.3-0.2,0.5-0.2,0.8l-0.5,3.4l-0.8,6c0,0.2,0,0.4,0,0.6c0,0.2,0,0.5,0.1,0.7
			c0,0,0,0,0,0c0,0,0,0.1,0,0.1c0.4,1.6,1.7,2.9,3.4,3.2c0.2,0,0.4,0,0.6,0c1.7,0,3.3-1.1,3.9-2.8c0.1-0.3,0.2-0.5,0.2-0.8l0.3-1.8
			l0.7-4.8l0.1-1L69.2,44z M30.8,90c-4.9,0-8.8-2.6-11.6-6.1c-2.9-3.6-5-8.2-6.4-12.7C9.7,62,9,53,9,53c0,0,0,0,0,0
			c0-0.2,0-0.3,0.1-0.5c0,0,0,0,0,0c0.1-0.2,0.1-0.3,0.2-0.5c5.7-7.4,6.8-13.2,7-14.4c0-0.2,0-0.2,0-0.2c0-0.5,0.4-1,0.8-1.2
			c0.3-0.1,0.5-0.2,0.8-0.3c0.7-0.3,1.3-0.4,1.9-0.5L13.9,11c-0.2-0.6-0.2-1.2-0.2-1.8c0-3.1,2.1-5.9,5.2-6.8
			c0.6-0.2,1.2-0.2,1.8-0.2c3.1,0,5.9,2.1,6.8,5.2l8.7,31.9l5-33.3c0.5-3.5,3.5-6,6.9-6c0.3,0,0.6,0,1,0.1c3.5,0.5,6,3.5,6,6.9
			c0,0.3,0,0.7-0.1,1l-3,22.9c0.9-0.5,2-0.8,3.1-0.8c0.3,0,0.7,0,1,0.1c3.5,0.5,6,3.5,6,6.9c0,0,0,0,0,0c0.9-0.5,2-0.7,3-0.7
			c0.3,0,0.6,0,1,0.1c3.5,0.5,6,3.5,6,6.9c0,0.3,0,0.7-0.1,1l-0.2,29.6c0,8.9-7.2,16.1-16.1,16.1H31C30.9,90,30.9,90,30.8,90
			L30.8,90z M18.7,39.9c0,0,0,0.1,0,0.1c0,0.2-0.1,0.4-0.1,0.6c0,0,0,0.1,0,0.1c-0.1,0.2-0.1,0.4-0.2,0.6c0,0.1,0,0.1,0,0.2
			c-0.1,0.2-0.1,0.4-0.2,0.6c0,0.1,0,0.1-0.1,0.2c-0.1,0.2-0.1,0.4-0.2,0.6c0,0.1-0.1,0.2-0.1,0.3c-0.1,0.2-0.2,0.4-0.3,0.7
			c0,0.1-0.1,0.2-0.1,0.3c-0.1,0.2-0.2,0.5-0.3,0.7c0,0.1-0.1,0.2-0.1,0.3c-0.1,0.2-0.2,0.5-0.3,0.7c-0.1,0.1-0.1,0.2-0.2,0.4
			c-0.1,0.2-0.2,0.5-0.4,0.7c-0.1,0.1-0.1,0.3-0.2,0.4c-0.1,0.2-0.3,0.5-0.4,0.7c-0.1,0.1-0.2,0.3-0.2,0.4c-0.1,0.3-0.3,0.5-0.4,0.7
			c-0.1,0.2-0.2,0.3-0.3,0.5c-0.1,0.3-0.3,0.5-0.5,0.7c-0.1,0.2-0.2,0.3-0.3,0.5c-0.2,0.3-0.3,0.5-0.5,0.8c-0.1,0.2-0.3,0.3-0.4,0.5
			c-0.2,0.3-0.4,0.5-0.6,0.8c-0.1,0.1-0.2,0.2-0.3,0.4c0.1,0.5,0.2,1.5,0.3,2.7c0.3,2,0.7,4.8,1.4,7.9c1.4,6.2,3.9,13.6,7.7,18.2
			c2.6,3.1,5.6,5,9.4,5c0,0,0.1,0,0.2,0h24.9c7.3,0,13.2-5.9,13.2-13.2V57.5c-1.3,1.4-3.1,2.3-5.2,2.3h0c-0.3,0-0.6,0-0.9-0.1
			c-1.5-0.2-2.8-0.9-3.8-1.8c-1,2.8-3.6,4.6-6.6,4.6c-0.3,0-0.7,0-1-0.1c-3.1-0.4-5.4-2.8-5.9-5.7c-0.1-0.4-0.1-0.8-0.1-1.2
			c0-0.3,0-0.6,0.1-1l6.5-47c0-0.2,0-0.4,0-0.6c0-2-1.5-3.8-3.5-4c-0.2,0-0.4,0-0.6,0c-2,0-3.8,1.5-4,3.5L38.8,41l-0.5,3.4l-0.1,0.9
			c-0.1,0.8-0.9,1.3-1.7,1.2c0,0,0,0-0.1,0c-0.6,0.1-1.2-0.2-1.5-0.6c-0.1-0.1-0.1-0.3-0.2-0.4L34.1,43L24.6,8.1c-0.5-1.8-2.2-3-4-3
			c-0.4,0-0.7,0.1-1.1,0.1c-1.8,0.5-3,2.2-3,4c0,0.4,0,0.7,0.1,1.1l6.1,25.1c0.8,0.3,1.5,0.7,2.1,1.3c0.3,0.2,0.5,0.5,0.7,0.8
			c1.1,1.5,1.5,3.4,1.6,4.9c0,0.2,0,0.4,0.1,0.6c0,0.2,0,0.4,0,0.5c0,0.4,0,0.7,0,1c0,0.1,0,0.2,0,0.3c0,0.3,0,0.5,0,0.5
			c0,0.2-0.1,0.4-0.1,0.5c0,0,0,0,0,0.1l0,0c-0.3,0.5-0.5,1.1-0.7,1.6c-0.2,0.3-0.3,0.6-0.4,0.9l0.9,3.6l0.4,2.2l0.9,4.9
			c1.1,0.1,2.8,0.3,4.7,0.9c3,0.9,6.7,2.9,8.5,6.9c0.3,0.7,0,1.6-0.7,1.9C40.4,68.9,40.2,69,40,69c-0.5,0-1.1-0.3-1.3-0.8
			c-1.4-3-4.1-4.5-6.7-5.3c-2.3-0.7-4.4-0.8-4.8-0.8c0,0-0.1,0-0.1,0c0,0,0,0-0.1,0c0,0,0,0,0,0c-0.1,0-0.3,0-0.4-0.1L26,61.8
			L23.3,61l-0.1,0l0,0c-0.1,0-0.1,0-0.2-0.1c-0.6-0.3-1.7-1.4-1.9-3.6c0-0.3,0-0.6,0-0.9c0-1.9,0.5-4.5,2-8.1
			c0.2-0.6,0.5-1.2,0.8-1.9c0.1-0.3,0.3-0.6,0.5-1c0.1-0.1,0.1-0.3,0.2-0.5c0-0.1,0-0.2,0-0.4c0-0.9-0.1-2.6-0.5-3.9
			c-0.2-0.6-0.4-1.1-0.7-1.5c-0.1-0.1-0.2-0.3-0.3-0.4c-0.3-0.3-0.6-0.5-0.9-0.6C21.6,38.1,21.4,38,21,38c-0.2,0-0.4,0-0.6,0.1
			c0,0,0,0,0,0c-0.4,0.1-0.9,0.2-1.4,0.4c0,0.1-0.1,0.3-0.1,0.5c0,0.1-0.1,0.2-0.1,0.3c0,0.1,0,0.1,0,0.2
			C18.8,39.6,18.8,39.7,18.7,39.9z"/>
	</g>
	<g>
	</g>
</g>
</svg>
